<?xml version="1.0" encoding="UTF-8"?>
<svg class="feather feather-phone-call" fill="none" stroke="currentColor" stroke-linecap="round" stroke-linejoin="round" version="1.1" viewBox="0 0 1080 1080" xmlns="http://www.w3.org/2000/svg">
<circle cx="540" cy="540" r="500" fill="#fff" stroke="#000" stroke-width="60"/>
<path d="m814.02 666.9v78.852c0.13048 30.985-27.345 55.357-59.262 52.568-83.651-8.7883-164-36.426-234.6-80.692-65.682-40.355-121.37-94.197-163.11-157.7-45.942-68.569-74.533-146.64-83.456-227.88-2.8745-30.755 22.159-57.27 54.097-57.299h81.553c27.29-0.25967 50.55 19.081 54.369 45.208 3.4422 25.234 9.8258 50.011 19.029 73.858 7.4685 19.21 2.6917 40.866-12.233 55.459l-34.524 33.381c38.699 65.803 95.049 120.29 163.11 157.7l34.524-33.381c15.093-14.43 37.491-19.049 57.359-11.828 24.664 8.8984 50.29 15.071 76.388 18.399 27.336 3.7286 47.442 26.673 46.757 53.356z" stroke-width="60"/>
</svg>